<svg width="174" height="174" viewBox="0 0 174 174" fill="none" xmlns="http://www.w3.org/2000/svg">
<rect width="174" height="174" fill="#EFFEF6"/>
<path d="M145.087 79.1509L133.468 79.7097C130.886 79.896 128.489 78.9647 126.46 77.102L117.793 69.0926C112.444 64.0635 105.621 61.642 98.4284 62.0146L69.1056 63.5047C55.4584 64.2497 44.2088 75.2394 42.7334 89.768L41.9957 97.0324C41.0736 105.042 47.1595 111.934 54.7207 111.561L154.308 106.532C159.472 106.346 163.345 101.689 162.976 96.2873C162.238 86.4153 154.308 78.7784 145.087 79.1509ZM54.5363 75.9844L56.3805 73.7493C59.5157 70.024 63.7574 67.975 68.1834 67.6025L79.6175 67.0437C80.7241 67.0437 81.8306 67.975 81.8306 69.2789L82.3838 79.3372C82.3838 80.6411 81.4617 81.7586 80.3552 81.7586L57.4871 82.8762C54.1675 83.0625 52.3233 78.5921 54.5363 75.9844ZM117.239 80.0823L91.9737 81.3861C90.6828 81.3861 89.7607 80.4548 89.5762 79.1509L89.023 68.9064C89.023 67.6025 89.9451 66.4849 91.0516 66.4849L100.457 65.9261C105.99 65.5536 111.338 68.1613 115.211 72.6317L118.53 76.5432C119.637 77.6608 118.899 79.896 117.239 80.0823Z" fill="#77DEFF"/>
<path d="M74.4085 108.711C72.7487 103.066 66.6629 99.9706 61.1303 101.791C56.8887 103.066 53.938 106.89 53.5692 111.078C53.3848 112.353 53.5692 113.81 53.938 115.084C55.5978 120.729 61.6836 123.825 67.2162 122.004C72.3799 120.365 75.515 115.266 74.5929 109.986C74.5929 109.439 74.5929 109.075 74.4085 108.711Z" fill="#24C77B"/>
<path d="M74.7532 110.428C74.7532 110.045 74.5684 109.662 74.3835 109.088C72.72 103.157 66.6203 99.9047 61.0752 101.818C56.8239 103.157 53.8665 107.175 53.4968 111.576" fill="#24C77B"/>
<path d="M74.7532 110.428C74.7532 110.045 74.5684 109.662 74.3835 109.088C72.72 103.157 66.6203 99.9047 61.0752 101.818C56.8239 103.157 53.8665 107.175 53.4968 111.576" stroke="#231F20" stroke-miterlimit="10"/>
<path d="M71.7672 110.858C71.2199 106.688 67.6075 103.799 63.366 104.309C59.1245 104.818 56.2089 108.347 56.7562 112.518" fill="#24C77B"/>
<path d="M71.7672 110.858C71.2199 106.688 67.6075 103.799 63.366 104.309C59.1245 104.818 56.2089 108.347 56.7562 112.518" stroke="#231F20" stroke-miterlimit="10"/>
<path d="M150.682 109.926C150.872 108.757 150.682 107.393 150.493 106.225C149.546 101.549 145.76 98.0425 140.838 97.4581C134.969 96.8737 129.667 101.16 128.91 107.199C128.91 107.393 128.91 107.393 128.91 107.588C128.342 113.822 132.697 119.277 138.755 119.861C144.624 120.641 149.925 116.16 150.682 109.926Z" fill="#24C77B"/>
<path d="M150.368 106.685C149.314 101.874 145.438 98.3318 140.487 97.8349C134.588 97.3586 129.394 101.688 128.77 107.946" fill="#24C77B"/>
<path d="M150.368 106.685C149.314 101.874 145.438 98.3318 140.487 97.8349C134.588 97.3586 129.394 101.688 128.77 107.946" stroke="#231F20" stroke-miterlimit="10"/>
<path d="M94.0768 90.3193C95.4998 90.3193 96.6533 89.1658 96.6533 87.7428C96.6533 86.3198 95.4998 85.1663 94.0768 85.1663C92.6538 85.1663 91.5002 86.3198 91.5002 87.7428C91.5002 89.1658 92.6538 90.3193 94.0768 90.3193Z" stroke="#231F20" stroke-miterlimit="10"/>
<path d="M135.945 64.5541C139.502 64.5541 142.386 61.6702 142.386 58.1128C142.386 54.5553 139.502 51.6714 135.945 51.6714C132.387 51.6714 129.503 54.5553 129.503 58.1128C129.503 61.6702 132.387 64.5541 135.945 64.5541Z" stroke="#FCCE99" stroke-miterlimit="10"/>
<path d="M21.2908 101.27C24.2452 99.5521 27.5689 99.5521 30.5233 101.27C33.4778 102.987 36.8015 102.987 39.7559 101.27C42.7103 99.5521 46.034 99.5521 48.9885 101.27" stroke="#4270E6" stroke-width="2" stroke-miterlimit="10"/>
<path d="M20.0015 93.5401C22.9559 90.9636 26.2796 90.9636 29.234 93.5401C32.1885 96.1167 35.5122 96.1167 38.4666 93.5401C41.421 90.9636 44.7447 90.9636 47.6992 93.5401" stroke="#4270E6" stroke-width="2" stroke-miterlimit="10"/>
<path d="M21.9338 84.8963C25.137 83.1044 28.7169 83.7017 31.1664 86.4891C33.8043 89.2766 37.1958 89.8739 40.399 88.082C43.6021 86.29 47.1821 86.8873 49.6315 89.6748" stroke="#4270E6" stroke-width="2" stroke-miterlimit="10"/>
<path d="M147.506 109.643C147.898 105.251 144.762 101.258 140.255 100.659C135.943 100.26 132.023 103.454 131.436 108.046" fill="#24C77B"/>
<path d="M147.506 109.643C147.898 105.251 144.762 101.258 140.255 100.659C135.943 100.26 132.023 103.454 131.436 108.046" stroke="#231F20" stroke-miterlimit="10"/>
<path d="M156.555 89.6749C154.718 86.2932 151.378 83.8777 147.537 83.2336" stroke="#231F20" stroke-miterlimit="10"/>
</svg>
