<svg width="74" height="101" viewBox="0 0 74 101" fill="none" xmlns="http://www.w3.org/2000/svg">
<path d="M27.1947 83.5693L27.0884 69.1475C19.5087 63.4769 8.63126 43.0094 27.8897 31.8902C40.5134 24.6017 54.3512 35.0098 55.7891 46.3142C56.856 54.7012 51.3223 62.9848 44.2764 67.0527L42.9602 83.0786L26.7892 86.9348L41.4713 88.6354L25.9328 92.9094L39.5647 94.8249" stroke="#004737" stroke-linecap="round" stroke-linejoin="round"/>
<path d="M32.3887 77.0475L28.281 51.6272L32.7212 57.2838L35.5539 51.3425L37.9269 55.4526L43.2899 51.1819L38.8596 76.0516" stroke="#004737" stroke-linecap="round" stroke-linejoin="round"/>
<path d="M12.9961 39.3144L2.77197 28.3856" stroke="#004737" stroke-linecap="round" stroke-linejoin="round"/>
<path d="M51.5092 26.933L57.1869 17.7835" stroke="#004737" stroke-linecap="round" stroke-linejoin="round"/>
<path d="M26.3202 24.8372L16.0807 0.999999" stroke="#004737" stroke-linecap="round" stroke-linejoin="round"/>
</svg>
