<svg width="34" height="34" viewBox="0 0 34 34" fill="none" xmlns="http://www.w3.org/2000/svg">
<rect x="0.5" y="0.5" width="33" height="33" rx="16.5" stroke="#E5E7EB"/>
<g clip-path="url(#clip0_628_120)">
<path d="M20.5556 16.5556H17.4444V13.4444C17.4444 13.3266 17.3976 13.2135 17.3143 13.1302C17.2309 13.0468 17.1179 13 17 13C16.8821 13 16.7691 13.0468 16.6857 13.1302C16.6024 13.2135 16.5556 13.3266 16.5556 13.4444V16.5556H13.4444C13.3266 16.5556 13.2135 16.6024 13.1302 16.6857C13.0468 16.7691 13 16.8821 13 17C13 17.1179 13.0468 17.2309 13.1302 17.3143C13.2135 17.3976 13.3266 17.4444 13.4444 17.4444H16.5556V20.5556C16.5556 20.6734 16.6024 20.7865 16.6857 20.8698C16.7691 20.9532 16.8821 21 17 21C17.1179 21 17.2309 20.9532 17.3143 20.8698C17.3976 20.7865 17.4444 20.6734 17.4444 20.5556V17.4444H20.5556C20.6734 17.4444 20.7865 17.3976 20.8698 17.3143C20.9532 17.2309 21 17.1179 21 17C21 16.8821 20.9532 16.7691 20.8698 16.6857C20.7865 16.6024 20.6734 16.5556 20.5556 16.5556Z" fill="#111928"/>
</g>
<defs>
<clipPath id="clip0_628_120">
<rect width="8" height="8" fill="white" transform="translate(13 13)"/>
</clipPath>
</defs>
</svg>
