<svg width="23" height="22" viewBox="0 0 23 22" fill="none" xmlns="http://www.w3.org/2000/svg">
<g clip-path="url(#clip0_628_57)">
<path d="M11.0073 14.3953C11.5187 14.905 12.2113 15.1913 12.9334 15.1913C13.6554 15.1913 14.3481 14.905 14.8594 14.3953L15.8225 13.4325C16.3338 12.9228 17.0265 12.6365 17.7485 12.6365C18.4706 12.6365 19.1632 12.9228 19.6746 13.4325L21.6007 15.3582C21.8822 15.594 22.1087 15.8886 22.2641 16.2213C22.4195 16.5541 22.5 16.9168 22.5 17.284C22.5 17.6512 22.4195 18.014 22.2641 18.3467C22.1087 18.6794 21.8822 18.974 21.6007 19.2098C16.5571 24.2539 10.7514 21.8577 5.69274 16.7998C0.634062 11.7419 -1.75013 5.94258 3.29478 0.898438C3.5307 0.617109 3.82541 0.390878 4.15817 0.235658C4.49093 0.0804387 4.85366 0 5.22085 0C5.58804 0 5.95077 0.0804387 6.28353 0.235658C6.61629 0.390878 6.91099 0.617109 7.14691 0.898438L9.07298 2.82421C9.5831 3.33533 9.86959 4.02791 9.86959 4.74998C9.86959 5.47205 9.5831 6.16463 9.07298 6.67575L8.10995 7.63864C7.59983 8.14976 7.31334 8.84234 7.31334 9.56441C7.31334 10.2865 7.59983 10.9791 8.10995 11.4902L11.0073 14.3953Z" fill="#00D37F"/>
</g>
<defs>
<clipPath id="clip0_628_57">
<rect width="22" height="22" fill="white" transform="translate(0.5)"/>
</clipPath>
</defs>
</svg>
