<svg width="174" height="174" viewBox="0 0 174 174" fill="none" xmlns="http://www.w3.org/2000/svg">
<rect width="174" height="174" fill="#EFFEF6"/>
<path d="M86.8005 65.3865L81.1775 127.521C80.8963 130.051 78.7877 131.738 76.2573 131.598C73.727 131.317 72.0401 129.208 72.1806 126.678C72.3212 125.834 71.6183 125.131 70.9155 125.131C70.2126 125.131 69.3691 125.834 69.3691 126.537C68.9474 130.614 72.0401 134.128 75.9762 134.55C80.0529 134.972 83.5673 131.879 83.989 127.943L89.6121 65.8082L86.8005 65.3865Z" fill="#4270E6"/>
<path d="M91.2999 47.3931L91.581 43.7381C91.7216 42.8946 91.0187 42.1917 90.3159 42.1917C89.4724 42.0512 88.7695 42.754 88.7695 43.4569L88.4884 47.1119C60.7949 45.0033 36.4753 57.6551 28.603 76.7734C41.1143 70.3069 56.1559 71.7127 67.402 80.2878C79.9132 73.8213 94.9549 75.2271 106.201 83.8022C118.712 77.3357 133.754 78.7415 145 87.3166C140.501 67.2143 118.853 50.3451 91.2999 47.3931Z" fill="#4270E6"/>
<path d="M55.593 65.6681L59.248 45.144" stroke="#24C77B" stroke-miterlimit="10" stroke-linecap="round" stroke-linejoin="round"/>
<path d="M127.99 72.5563L131.505 52.0322" stroke="#24C77B" stroke-miterlimit="10" stroke-linecap="round" stroke-linejoin="round"/>
<path d="M53.2041 114.447L55.5939 100.53" stroke="#24C77B" stroke-miterlimit="10" stroke-linecap="round" stroke-linejoin="round"/>
<path d="M119.083 85.9914L121.333 73.3396" stroke="#24C77B" stroke-miterlimit="10" stroke-linecap="round" stroke-linejoin="round"/>
<path d="M62.9014 72.5562L65.2912 58.6392" stroke="#24C77B" stroke-miterlimit="10" stroke-linecap="round" stroke-linejoin="round"/>
<path d="M68.6677 66.3713L70.4952 55.2658" stroke="#24C77B" stroke-miterlimit="10" stroke-linecap="round" stroke-linejoin="round"/>
<path d="M77.5239 81.8343L79.492 70.7288" stroke="#24C77B" stroke-miterlimit="10" stroke-linecap="round" stroke-linejoin="round"/>
<path d="M118.995 59.6234L120.963 48.5179" stroke="#24C77B" stroke-miterlimit="10" stroke-linecap="round" stroke-linejoin="round"/>
<path d="M100.154 76.211L101.278 70.4474" stroke="#24C77B" stroke-miterlimit="10" stroke-linecap="round" stroke-linejoin="round"/>
<path d="M131.504 91.2528L132.488 85.4892" stroke="#24C77B" stroke-miterlimit="10" stroke-linecap="round" stroke-linejoin="round"/>
<path d="M46.5974 70.1664L47.5814 64.2622" stroke="#24C77B" stroke-miterlimit="10" stroke-linecap="round" stroke-linejoin="round"/>
<path d="M105.92 129.771L106.904 123.867" stroke="#24C77B" stroke-miterlimit="10" stroke-linecap="round" stroke-linejoin="round"/>
<path d="M108.173 60.8881L109.157 54.9839" stroke="#24C77B" stroke-miterlimit="10" stroke-linecap="round" stroke-linejoin="round"/>
<path d="M100.858 45.1438L101.842 39.2396" stroke="#24C77B" stroke-miterlimit="10" stroke-linecap="round" stroke-linejoin="round"/>
<path d="M120.964 122.742C122.594 122.742 123.916 121.42 123.916 119.79C123.916 118.159 122.594 116.837 120.964 116.837C119.333 116.837 118.012 118.159 118.012 119.79C118.012 121.42 119.333 122.742 120.964 122.742Z" stroke="#FCCE99" stroke-miterlimit="10"/>
<path d="M54.4689 89.2847C56.0993 89.2847 57.421 87.963 57.421 86.3326C57.421 84.7022 56.0993 83.3805 54.4689 83.3805C52.8385 83.3805 51.5168 84.7022 51.5168 86.3326C51.5168 87.963 52.8385 89.2847 54.4689 89.2847Z" stroke="#FCCE99" stroke-miterlimit="10"/>
<path d="M85.8152 76.3518C86.7992 76.3518 87.7832 76.4924 88.6267 76.633" stroke="#0F1924" stroke-miterlimit="10" stroke-linecap="round" stroke-linejoin="round"/>
<path d="M80.8677 88.8545C87.1358 90.7074 93.8016 89.4715 96.351 88.6219C99.7314 103.559 91.7247 114.613 87.558 118.418C73.6968 113.704 67.939 101.049 66.7928 95.311C74.7909 93.501 79.5086 90.2525 80.8677 88.8545Z" fill="#50E09A"/>
</svg>
