<svg width="174" height="174" viewBox="0 0 174 174" fill="none" xmlns="http://www.w3.org/2000/svg">
<rect width="174" height="174" fill="#EFFEF6"/>
<path d="M81.2816 75.1999C90.6183 75.1999 98.1871 67.275 98.1871 57.4992C98.1871 47.7233 90.6183 39.7984 81.2816 39.7984C71.9449 39.7984 64.376 47.7233 64.376 57.4992C64.376 67.275 71.9449 75.1999 81.2816 75.1999Z" fill="#4270E6"/>
<path d="M126.245 45.7201L90.0491 36.6517L80.8911 73.2415L117.087 82.3099L126.245 45.7201Z" fill="#24C77B"/>
<path d="M116.473 142.069L55.6586 136.885L50.2241 51.599L62.7752 58.8574L73.6441 51.599L84.3836 58.8574L96.5465 51.599L108.709 58.8574L132 51.599L116.473 142.069Z" fill="#77DEFF"/>
<path d="M40.7876 85.5248L46.8389 91.7201L62.8042 75.1994" stroke="#4270E6" stroke-width="2" stroke-miterlimit="10" stroke-linecap="square" stroke-linejoin="round"/>
<path d="M117.451 37.4381C118.971 37.4381 120.203 36.2053 120.203 34.6846C120.203 33.164 118.971 31.9312 117.451 31.9312C115.931 31.9312 114.699 33.164 114.699 34.6846C114.699 36.2053 115.931 37.4381 117.451 37.4381Z" stroke="#FCCE99" stroke-miterlimit="10" stroke-linecap="round" stroke-linejoin="round"/>
<path d="M62.8042 58.6793L73.7814 51.599L84.4276 58.6793L96.769 51.599L108.779 58.6793L124.136 53.9591" stroke="#0F1924" stroke-miterlimit="10" stroke-linecap="round" stroke-linejoin="round"/>
<path d="M88.751 41.7648L84.4263 58.6788" stroke="#0F1924" stroke-miterlimit="10" stroke-linecap="round" stroke-linejoin="round"/>
<path d="M107.893 123.794L104.992 112.356" stroke="black"/>
<path d="M112.161 116.624L100.728 119.526" stroke="black"/>
</svg>
